<?xml version="1.0" encoding="UTF-8" standalone="no"?>
<!DOCTYPE svg PUBLIC "-//W3C//DTD SVG 1.1//EN"
 "http://www.w3.org/Graphics/SVG/1.1/DTD/svg11.dtd">
<!-- Generated by graphviz version 2.50.0 (0)
 -->
<!-- Title: fn Pages: 1 -->
<svg width="378pt" height="1031pt"
 viewBox="0.00 0.00 377.50 1031.00" xmlns="http://www.w3.org/2000/svg" xmlns:xlink="http://www.w3.org/1999/xlink">
<g id="graph0" class="graph" transform="scale(1 1) rotate(0) translate(4 1027)">
<title>fn</title>
<polygon fill="white" stroke="transparent" points="-4,4 -4,-1027 373.5,-1027 373.5,4 -4,4"/>
<!-- primals_1 -->
<g id="node1" class="node">
<title>primals_1</title>
<path fill="AliceBlue" stroke="black" d="M64.5,-838.5C64.5,-838.5 174.5,-838.5 174.5,-838.5 180.5,-838.5 186.5,-844.5 186.5,-850.5 186.5,-850.5 186.5,-1010.5 186.5,-1010.5 186.5,-1016.5 180.5,-1022.5 174.5,-1022.5 174.5,-1022.5 64.5,-1022.5 64.5,-1022.5 58.5,-1022.5 52.5,-1016.5 52.5,-1010.5 52.5,-1010.5 52.5,-850.5 52.5,-850.5 52.5,-844.5 58.5,-838.5 64.5,-838.5"/>
<text text-anchor="middle" x="119.5" y="-1007.3" font-family="Times,serif" font-size="14.00" fill="#000000">name=%primals_1</text>
<polyline fill="none" stroke="black" points="52.5,-999.5 186.5,-999.5 "/>
<text text-anchor="middle" x="119.5" y="-984.3" font-family="Times,serif" font-size="14.00" fill="#000000">op_code=placeholder</text>
<polyline fill="none" stroke="black" points="52.5,-976.5 186.5,-976.5 "/>
<text text-anchor="middle" x="119.5" y="-961.3" font-family="Times,serif" font-size="14.00" fill="#000000">target=primals_1</text>
<polyline fill="none" stroke="black" points="52.5,-953.5 186.5,-953.5 "/>
<text text-anchor="middle" x="119.5" y="-938.3" font-family="Times,serif" font-size="14.00" fill="#000000">num_users=1</text>
<polyline fill="none" stroke="black" points="52.5,-930.5 186.5,-930.5 "/>
<text text-anchor="middle" x="119.5" y="-915.3" font-family="Times,serif" font-size="14.00" fill="#000000">dtype=torch.float32</text>
<polyline fill="none" stroke="black" points="52.5,-907.5 186.5,-907.5 "/>
<text text-anchor="middle" x="119.5" y="-892.3" font-family="Times,serif" font-size="14.00" fill="#000000">shape=(1000,)</text>
<polyline fill="none" stroke="black" points="52.5,-884.5 186.5,-884.5 "/>
<text text-anchor="middle" x="119.5" y="-869.3" font-family="Times,serif" font-size="14.00" fill="#000000">requires_grad=True</text>
<polyline fill="none" stroke="black" points="52.5,-861.5 186.5,-861.5 "/>
<text text-anchor="middle" x="119.5" y="-846.3" font-family="Times,serif" font-size="14.00" fill="#000000">stride=(1,)</text>
</g>
<!-- pow_2 -->
<g id="node3" class="node">
<title>pow_2</title>
<path fill="#fff0f5" stroke="black" d="M12,-594.5C12,-594.5 227,-594.5 227,-594.5 233,-594.5 239,-600.5 239,-606.5 239,-606.5 239,-789.5 239,-789.5 239,-795.5 233,-801.5 227,-801.5 227,-801.5 12,-801.5 12,-801.5 6,-801.5 0,-795.5 0,-789.5 0,-789.5 0,-606.5 0,-606.5 0,-600.5 6,-594.5 12,-594.5"/>
<text text-anchor="middle" x="119.5" y="-786.3" font-family="Times,serif" font-size="14.00" fill="#000000">name=%pow_2</text>
<polyline fill="none" stroke="black" points="0,-778.5 239,-778.5 "/>
<text text-anchor="middle" x="119.5" y="-763.3" font-family="Times,serif" font-size="14.00" fill="#000000">op_code=call_function</text>
<polyline fill="none" stroke="black" points="0,-755.5 239,-755.5 "/>
<text text-anchor="middle" x="119.5" y="-740.3" font-family="Times,serif" font-size="14.00" fill="#000000">target=torch.ops.aten.pow.Tensor_Scalar</text>
<polyline fill="none" stroke="black" points="0,-732.5 239,-732.5 "/>
<text text-anchor="middle" x="119.5" y="-717.3" font-family="Times,serif" font-size="14.00" fill="#000000">args=(9.0,)</text>
<polyline fill="none" stroke="black" points="0,-709.5 239,-709.5 "/>
<text text-anchor="middle" x="119.5" y="-694.3" font-family="Times,serif" font-size="14.00" fill="#000000">num_users=1</text>
<polyline fill="none" stroke="black" points="0,-686.5 239,-686.5 "/>
<text text-anchor="middle" x="119.5" y="-671.3" font-family="Times,serif" font-size="14.00" fill="#000000">dtype=torch.float32</text>
<polyline fill="none" stroke="black" points="0,-663.5 239,-663.5 "/>
<text text-anchor="middle" x="119.5" y="-648.3" font-family="Times,serif" font-size="14.00" fill="#000000">shape=(1000,)</text>
<polyline fill="none" stroke="black" points="0,-640.5 239,-640.5 "/>
<text text-anchor="middle" x="119.5" y="-625.3" font-family="Times,serif" font-size="14.00" fill="#000000">requires_grad=False</text>
<polyline fill="none" stroke="black" points="0,-617.5 239,-617.5 "/>
<text text-anchor="middle" x="119.5" y="-602.3" font-family="Times,serif" font-size="14.00" fill="#000000">stride=(1,)</text>
</g>
<!-- primals_1&#45;&gt;pow_2 -->
<g id="edge1" class="edge">
<title>primals_1&#45;&gt;pow_2</title>
<path fill="none" stroke="black" d="M119.5,-838.4C119.5,-829.62 119.5,-820.65 119.5,-811.7"/>
<polygon fill="black" stroke="black" points="123,-811.61 119.5,-801.61 116,-811.61 123,-811.61"/>
</g>
<!-- tangents_1 -->
<g id="node2" class="node">
<title>tangents_1</title>
<path fill="AliceBlue" stroke="black" d="M247.5,-362C247.5,-362 357.5,-362 357.5,-362 363.5,-362 369.5,-368 369.5,-374 369.5,-374 369.5,-534 369.5,-534 369.5,-540 363.5,-546 357.5,-546 357.5,-546 247.5,-546 247.5,-546 241.5,-546 235.5,-540 235.5,-534 235.5,-534 235.5,-374 235.5,-374 235.5,-368 241.5,-362 247.5,-362"/>
<text text-anchor="middle" x="302.5" y="-530.8" font-family="Times,serif" font-size="14.00" fill="#000000">name=%tangents_1</text>
<polyline fill="none" stroke="black" points="235.5,-523 369.5,-523 "/>
<text text-anchor="middle" x="302.5" y="-507.8" font-family="Times,serif" font-size="14.00" fill="#000000">op_code=placeholder</text>
<polyline fill="none" stroke="black" points="235.5,-500 369.5,-500 "/>
<text text-anchor="middle" x="302.5" y="-484.8" font-family="Times,serif" font-size="14.00" fill="#000000">target=tangents_1</text>
<polyline fill="none" stroke="black" points="235.5,-477 369.5,-477 "/>
<text text-anchor="middle" x="302.5" y="-461.8" font-family="Times,serif" font-size="14.00" fill="#000000">num_users=1</text>
<polyline fill="none" stroke="black" points="235.5,-454 369.5,-454 "/>
<text text-anchor="middle" x="302.5" y="-438.8" font-family="Times,serif" font-size="14.00" fill="#000000">dtype=torch.float32</text>
<polyline fill="none" stroke="black" points="235.5,-431 369.5,-431 "/>
<text text-anchor="middle" x="302.5" y="-415.8" font-family="Times,serif" font-size="14.00" fill="#000000">shape=(1000,)</text>
<polyline fill="none" stroke="black" points="235.5,-408 369.5,-408 "/>
<text text-anchor="middle" x="302.5" y="-392.8" font-family="Times,serif" font-size="14.00" fill="#000000">requires_grad=False</text>
<polyline fill="none" stroke="black" points="235.5,-385 369.5,-385 "/>
<text text-anchor="middle" x="302.5" y="-369.8" font-family="Times,serif" font-size="14.00" fill="#000000">stride=(1,)</text>
</g>
<!-- mul_1 -->
<g id="node5" class="node">
<title>mul_1</title>
<path fill="#ffe7ba" stroke="black" d="M123.5,-129.5C123.5,-129.5 297.5,-129.5 297.5,-129.5 303.5,-129.5 309.5,-135.5 309.5,-141.5 309.5,-141.5 309.5,-301.5 309.5,-301.5 309.5,-307.5 303.5,-313.5 297.5,-313.5 297.5,-313.5 123.5,-313.5 123.5,-313.5 117.5,-313.5 111.5,-307.5 111.5,-301.5 111.5,-301.5 111.5,-141.5 111.5,-141.5 111.5,-135.5 117.5,-129.5 123.5,-129.5"/>
<text text-anchor="middle" x="210.5" y="-298.3" font-family="Times,serif" font-size="14.00" fill="#000000">name=%mul_1</text>
<polyline fill="none" stroke="black" points="111.5,-290.5 309.5,-290.5 "/>
<text text-anchor="middle" x="210.5" y="-275.3" font-family="Times,serif" font-size="14.00" fill="#000000">op_code=call_function</text>
<polyline fill="none" stroke="black" points="111.5,-267.5 309.5,-267.5 "/>
<text text-anchor="middle" x="210.5" y="-252.3" font-family="Times,serif" font-size="14.00" fill="#000000">target=torch.ops.aten.mul.Tensor</text>
<polyline fill="none" stroke="black" points="111.5,-244.5 309.5,-244.5 "/>
<text text-anchor="middle" x="210.5" y="-229.3" font-family="Times,serif" font-size="14.00" fill="#000000">num_users=1</text>
<polyline fill="none" stroke="black" points="111.5,-221.5 309.5,-221.5 "/>
<text text-anchor="middle" x="210.5" y="-206.3" font-family="Times,serif" font-size="14.00" fill="#000000">dtype=torch.float32</text>
<polyline fill="none" stroke="black" points="111.5,-198.5 309.5,-198.5 "/>
<text text-anchor="middle" x="210.5" y="-183.3" font-family="Times,serif" font-size="14.00" fill="#000000">shape=(1000,)</text>
<polyline fill="none" stroke="black" points="111.5,-175.5 309.5,-175.5 "/>
<text text-anchor="middle" x="210.5" y="-160.3" font-family="Times,serif" font-size="14.00" fill="#000000">requires_grad=False</text>
<polyline fill="none" stroke="black" points="111.5,-152.5 309.5,-152.5 "/>
<text text-anchor="middle" x="210.5" y="-137.3" font-family="Times,serif" font-size="14.00" fill="#000000">stride=(1,)</text>
</g>
<!-- tangents_1&#45;&gt;mul_1 -->
<g id="edge2" class="edge">
<title>tangents_1&#45;&gt;mul_1</title>
<path fill="none" stroke="black" d="M266.14,-361.9C261.05,-349.14 255.79,-335.97 250.63,-323.05"/>
<polygon fill="black" stroke="black" points="253.86,-321.68 246.9,-313.69 247.35,-324.28 253.86,-321.68"/>
</g>
<!-- mul -->
<g id="node4" class="node">
<title>mul</title>
<path fill="#ffe1ff" stroke="black" d="M34,-350.5C34,-350.5 205,-350.5 205,-350.5 211,-350.5 217,-356.5 217,-362.5 217,-362.5 217,-545.5 217,-545.5 217,-551.5 211,-557.5 205,-557.5 205,-557.5 34,-557.5 34,-557.5 28,-557.5 22,-551.5 22,-545.5 22,-545.5 22,-362.5 22,-362.5 22,-356.5 28,-350.5 34,-350.5"/>
<text text-anchor="middle" x="119.5" y="-542.3" font-family="Times,serif" font-size="14.00" fill="#000000">name=%mul</text>
<polyline fill="none" stroke="black" points="22,-534.5 217,-534.5 "/>
<text text-anchor="middle" x="119.5" y="-519.3" font-family="Times,serif" font-size="14.00" fill="#000000">op_code=call_function</text>
<polyline fill="none" stroke="black" points="22,-511.5 217,-511.5 "/>
<text text-anchor="middle" x="119.5" y="-496.3" font-family="Times,serif" font-size="14.00" fill="#000000">target=torch.ops.aten.mul.Scalar</text>
<polyline fill="none" stroke="black" points="22,-488.5 217,-488.5 "/>
<text text-anchor="middle" x="119.5" y="-473.3" font-family="Times,serif" font-size="14.00" fill="#000000">args=(10.0,)</text>
<polyline fill="none" stroke="black" points="22,-465.5 217,-465.5 "/>
<text text-anchor="middle" x="119.5" y="-450.3" font-family="Times,serif" font-size="14.00" fill="#000000">num_users=1</text>
<polyline fill="none" stroke="black" points="22,-442.5 217,-442.5 "/>
<text text-anchor="middle" x="119.5" y="-427.3" font-family="Times,serif" font-size="14.00" fill="#000000">dtype=torch.float32</text>
<polyline fill="none" stroke="black" points="22,-419.5 217,-419.5 "/>
<text text-anchor="middle" x="119.5" y="-404.3" font-family="Times,serif" font-size="14.00" fill="#000000">shape=(1000,)</text>
<polyline fill="none" stroke="black" points="22,-396.5 217,-396.5 "/>
<text text-anchor="middle" x="119.5" y="-381.3" font-family="Times,serif" font-size="14.00" fill="#000000">requires_grad=False</text>
<polyline fill="none" stroke="black" points="22,-373.5 217,-373.5 "/>
<text text-anchor="middle" x="119.5" y="-358.3" font-family="Times,serif" font-size="14.00" fill="#000000">stride=(1,)</text>
</g>
<!-- pow_2&#45;&gt;mul -->
<g id="edge3" class="edge">
<title>pow_2&#45;&gt;mul</title>
<path fill="none" stroke="black" d="M119.5,-594.37C119.5,-585.67 119.5,-576.83 119.5,-568.06"/>
<polygon fill="black" stroke="black" points="123,-567.79 119.5,-557.79 116,-567.79 123,-567.79"/>
</g>
<!-- mul&#45;&gt;mul_1 -->
<g id="edge4" class="edge">
<title>mul&#45;&gt;mul_1</title>
<path fill="none" stroke="black" d="M160.08,-350.22C163.63,-341.22 167.22,-332.12 170.77,-323.14"/>
<polygon fill="black" stroke="black" points="174.03,-324.42 174.44,-313.83 167.52,-321.85 174.03,-324.42"/>
</g>
<!-- output -->
<g id="node6" class="node">
<title>output</title>
<path fill="PowderBlue" stroke="black" d="M170,-0.5C170,-0.5 251,-0.5 251,-0.5 257,-0.5 263,-6.5 263,-12.5 263,-12.5 263,-80.5 263,-80.5 263,-86.5 257,-92.5 251,-92.5 251,-92.5 170,-92.5 170,-92.5 164,-92.5 158,-86.5 158,-80.5 158,-80.5 158,-12.5 158,-12.5 158,-6.5 164,-0.5 170,-0.5"/>
<text text-anchor="middle" x="210.5" y="-77.3" font-family="Times,serif" font-size="14.00" fill="#000000">name=%output</text>
<polyline fill="none" stroke="black" points="158,-69.5 263,-69.5 "/>
<text text-anchor="middle" x="210.5" y="-54.3" font-family="Times,serif" font-size="14.00" fill="#000000">op_code=output</text>
<polyline fill="none" stroke="black" points="158,-46.5 263,-46.5 "/>
<text text-anchor="middle" x="210.5" y="-31.3" font-family="Times,serif" font-size="14.00" fill="#000000">target=output</text>
<polyline fill="none" stroke="black" points="158,-23.5 263,-23.5 "/>
<text text-anchor="middle" x="210.5" y="-8.3" font-family="Times,serif" font-size="14.00" fill="#000000">num_users=0</text>
</g>
<!-- mul_1&#45;&gt;output -->
<g id="edge5" class="edge">
<title>mul_1&#45;&gt;output</title>
<path fill="none" stroke="black" d="M210.5,-129.44C210.5,-120.41 210.5,-111.45 210.5,-102.95"/>
<polygon fill="black" stroke="black" points="214,-102.84 210.5,-92.84 207,-102.84 214,-102.84"/>
</g>
</g>
</svg>
