<?xml version="1.0" encoding="UTF-8" standalone="no"?>
<!DOCTYPE svg PUBLIC "-//W3C//DTD SVG 1.1//EN"
 "http://www.w3.org/Graphics/SVG/1.1/DTD/svg11.dtd">
<!-- Generated by graphviz version 2.50.0 (0)
 -->
<!-- Title: fn Pages: 1 -->
<svg width="273pt" height="566pt"
 viewBox="0.00 0.00 272.91 566.00" xmlns="http://www.w3.org/2000/svg" xmlns:xlink="http://www.w3.org/1999/xlink">
<g id="graph0" class="graph" transform="scale(1 1) rotate(0) translate(4 562)">
<title>fn</title>
<polygon fill="white" stroke="transparent" points="-4,4 -4,-562 268.91,-562 268.91,4 -4,4"/>
<!-- primals_1 -->
<g id="node1" class="node">
<title>primals_1</title>
<path fill="AliceBlue" stroke="black" d="M138.5,-373.5C138.5,-373.5 248.5,-373.5 248.5,-373.5 254.5,-373.5 260.5,-379.5 260.5,-385.5 260.5,-385.5 260.5,-545.5 260.5,-545.5 260.5,-551.5 254.5,-557.5 248.5,-557.5 248.5,-557.5 138.5,-557.5 138.5,-557.5 132.5,-557.5 126.5,-551.5 126.5,-545.5 126.5,-545.5 126.5,-385.5 126.5,-385.5 126.5,-379.5 132.5,-373.5 138.5,-373.5"/>
<text text-anchor="middle" x="193.5" y="-542.3" font-family="Times,serif" font-size="14.00" fill="#000000">name=%primals_1</text>
<polyline fill="none" stroke="black" points="126.5,-534.5 260.5,-534.5 "/>
<text text-anchor="middle" x="193.5" y="-519.3" font-family="Times,serif" font-size="14.00" fill="#000000">op_code=placeholder</text>
<polyline fill="none" stroke="black" points="126.5,-511.5 260.5,-511.5 "/>
<text text-anchor="middle" x="193.5" y="-496.3" font-family="Times,serif" font-size="14.00" fill="#000000">target=primals_1</text>
<polyline fill="none" stroke="black" points="126.5,-488.5 260.5,-488.5 "/>
<text text-anchor="middle" x="193.5" y="-473.3" font-family="Times,serif" font-size="14.00" fill="#000000">num_users=2</text>
<polyline fill="none" stroke="black" points="126.5,-465.5 260.5,-465.5 "/>
<text text-anchor="middle" x="193.5" y="-450.3" font-family="Times,serif" font-size="14.00" fill="#000000">dtype=torch.float32</text>
<polyline fill="none" stroke="black" points="126.5,-442.5 260.5,-442.5 "/>
<text text-anchor="middle" x="193.5" y="-427.3" font-family="Times,serif" font-size="14.00" fill="#000000">shape=(1000,)</text>
<polyline fill="none" stroke="black" points="126.5,-419.5 260.5,-419.5 "/>
<text text-anchor="middle" x="193.5" y="-404.3" font-family="Times,serif" font-size="14.00" fill="#000000">requires_grad=True</text>
<polyline fill="none" stroke="black" points="126.5,-396.5 260.5,-396.5 "/>
<text text-anchor="middle" x="193.5" y="-381.3" font-family="Times,serif" font-size="14.00" fill="#000000">stride=(1,)</text>
</g>
<!-- pow_1 -->
<g id="node2" class="node">
<title>pow_1</title>
<path fill="#fff0f5" stroke="black" d="M12,-129.5C12,-129.5 227,-129.5 227,-129.5 233,-129.5 239,-135.5 239,-141.5 239,-141.5 239,-324.5 239,-324.5 239,-330.5 233,-336.5 227,-336.5 227,-336.5 12,-336.5 12,-336.5 6,-336.5 0,-330.5 0,-324.5 0,-324.5 0,-141.5 0,-141.5 0,-135.5 6,-129.5 12,-129.5"/>
<text text-anchor="middle" x="119.5" y="-321.3" font-family="Times,serif" font-size="14.00" fill="#000000">name=%pow_1</text>
<polyline fill="none" stroke="black" points="0,-313.5 239,-313.5 "/>
<text text-anchor="middle" x="119.5" y="-298.3" font-family="Times,serif" font-size="14.00" fill="#000000">op_code=call_function</text>
<polyline fill="none" stroke="black" points="0,-290.5 239,-290.5 "/>
<text text-anchor="middle" x="119.5" y="-275.3" font-family="Times,serif" font-size="14.00" fill="#000000">target=torch.ops.aten.pow.Tensor_Scalar</text>
<polyline fill="none" stroke="black" points="0,-267.5 239,-267.5 "/>
<text text-anchor="middle" x="119.5" y="-252.3" font-family="Times,serif" font-size="14.00" fill="#000000">args=(10,)</text>
<polyline fill="none" stroke="black" points="0,-244.5 239,-244.5 "/>
<text text-anchor="middle" x="119.5" y="-229.3" font-family="Times,serif" font-size="14.00" fill="#000000">num_users=1</text>
<polyline fill="none" stroke="black" points="0,-221.5 239,-221.5 "/>
<text text-anchor="middle" x="119.5" y="-206.3" font-family="Times,serif" font-size="14.00" fill="#000000">dtype=torch.float32</text>
<polyline fill="none" stroke="black" points="0,-198.5 239,-198.5 "/>
<text text-anchor="middle" x="119.5" y="-183.3" font-family="Times,serif" font-size="14.00" fill="#000000">shape=(1000,)</text>
<polyline fill="none" stroke="black" points="0,-175.5 239,-175.5 "/>
<text text-anchor="middle" x="119.5" y="-160.3" font-family="Times,serif" font-size="14.00" fill="#000000">requires_grad=False</text>
<polyline fill="none" stroke="black" points="0,-152.5 239,-152.5 "/>
<text text-anchor="middle" x="119.5" y="-137.3" font-family="Times,serif" font-size="14.00" fill="#000000">stride=(1,)</text>
</g>
<!-- primals_1&#45;&gt;pow_1 -->
<g id="edge1" class="edge">
<title>primals_1&#45;&gt;pow_1</title>
<path fill="none" stroke="black" d="M164.25,-373.4C161.41,-364.53 158.49,-355.46 155.59,-346.41"/>
<polygon fill="black" stroke="black" points="158.83,-345.06 152.44,-336.61 152.17,-347.2 158.83,-345.06"/>
</g>
<!-- output -->
<g id="node3" class="node">
<title>output</title>
<path fill="PowderBlue" stroke="black" d="M153,-0.5C153,-0.5 234,-0.5 234,-0.5 240,-0.5 246,-6.5 246,-12.5 246,-12.5 246,-80.5 246,-80.5 246,-86.5 240,-92.5 234,-92.5 234,-92.5 153,-92.5 153,-92.5 147,-92.5 141,-86.5 141,-80.5 141,-80.5 141,-12.5 141,-12.5 141,-6.5 147,-0.5 153,-0.5"/>
<text text-anchor="middle" x="193.5" y="-77.3" font-family="Times,serif" font-size="14.00" fill="#000000">name=%output</text>
<polyline fill="none" stroke="black" points="141,-69.5 246,-69.5 "/>
<text text-anchor="middle" x="193.5" y="-54.3" font-family="Times,serif" font-size="14.00" fill="#000000">op_code=output</text>
<polyline fill="none" stroke="black" points="141,-46.5 246,-46.5 "/>
<text text-anchor="middle" x="193.5" y="-31.3" font-family="Times,serif" font-size="14.00" fill="#000000">target=output</text>
<polyline fill="none" stroke="black" points="141,-23.5 246,-23.5 "/>
<text text-anchor="middle" x="193.5" y="-8.3" font-family="Times,serif" font-size="14.00" fill="#000000">num_users=0</text>
</g>
<!-- primals_1&#45;&gt;output -->
<g id="edge2" class="edge">
<title>primals_1&#45;&gt;output</title>
<path fill="none" stroke="black" d="M237.23,-373.28C241.45,-361.3 245.06,-349.01 247.5,-337 265.89,-246.4 274.16,-217.52 247.5,-129 244.64,-119.49 240.26,-110.07 235.22,-101.2"/>
<polygon fill="black" stroke="black" points="238.14,-99.28 229.98,-92.53 232.15,-102.9 238.14,-99.28"/>
</g>
<!-- pow_1&#45;&gt;output -->
<g id="edge3" class="edge">
<title>pow_1&#45;&gt;output</title>
<path fill="none" stroke="black" d="M160.61,-129.5C164.42,-120 168.17,-110.64 171.7,-101.84"/>
<polygon fill="black" stroke="black" points="174.96,-103.12 175.44,-92.53 168.47,-100.51 174.96,-103.12"/>
</g>
</g>
</svg>
