<?xml version="1.0" encoding="UTF-8" standalone="no"?>
<!DOCTYPE svg PUBLIC "-//W3C//DTD SVG 1.1//EN"
 "http://www.w3.org/Graphics/SVG/1.1/DTD/svg11.dtd">
<!-- Generated by graphviz version 2.50.0 (0)
 -->
<!-- Title: fx_graph Pages: 1 -->
<svg width="329pt" height="474pt"
 viewBox="0.00 0.00 329.00 474.00" xmlns="http://www.w3.org/2000/svg" xmlns:xlink="http://www.w3.org/1999/xlink">
<g id="graph0" class="graph" transform="scale(1 1) rotate(0) translate(4 470)">
<title>fx_graph</title>
<polygon fill="white" stroke="transparent" points="-4,4 -4,-470 325,-470 325,4 -4,4"/>
<!-- tangents_1 -->
<g id="node1" class="node">
<title>tangents_1</title>
<path fill="AliceBlue" stroke="black" d="M29.5,-373.5C29.5,-373.5 139.5,-373.5 139.5,-373.5 145.5,-373.5 151.5,-379.5 151.5,-385.5 151.5,-385.5 151.5,-453.5 151.5,-453.5 151.5,-459.5 145.5,-465.5 139.5,-465.5 139.5,-465.5 29.5,-465.5 29.5,-465.5 23.5,-465.5 17.5,-459.5 17.5,-453.5 17.5,-453.5 17.5,-385.5 17.5,-385.5 17.5,-379.5 23.5,-373.5 29.5,-373.5"/>
<text text-anchor="middle" x="84.5" y="-450.3" font-family="Times,serif" font-size="14.00" fill="#000000">name=%tangents_1</text>
<polyline fill="none" stroke="black" points="17.5,-442.5 151.5,-442.5 "/>
<text text-anchor="middle" x="84.5" y="-427.3" font-family="Times,serif" font-size="14.00" fill="#000000">op_code=placeholder</text>
<polyline fill="none" stroke="black" points="17.5,-419.5 151.5,-419.5 "/>
<text text-anchor="middle" x="84.5" y="-404.3" font-family="Times,serif" font-size="14.00" fill="#000000">target=tangents_1</text>
<polyline fill="none" stroke="black" points="17.5,-396.5 151.5,-396.5 "/>
<text text-anchor="middle" x="84.5" y="-381.3" font-family="Times,serif" font-size="14.00" fill="#000000">num_users=1</text>
</g>
<!-- op0 -->
<g id="node3" class="node">
<title>op0</title>
<path fill="#fff0f5" stroke="black" d="M12,-129.5C12,-129.5 309,-129.5 309,-129.5 315,-129.5 321,-135.5 321,-141.5 321,-141.5 321,-324.5 321,-324.5 321,-330.5 315,-336.5 309,-336.5 309,-336.5 12,-336.5 12,-336.5 6,-336.5 0,-330.5 0,-324.5 0,-324.5 0,-141.5 0,-141.5 0,-135.5 6,-129.5 12,-129.5"/>
<text text-anchor="middle" x="160.5" y="-321.3" font-family="Times,serif" font-size="14.00" fill="#000000">name=%op0</text>
<polyline fill="none" stroke="black" points="0,-313.5 321,-313.5 "/>
<text text-anchor="middle" x="160.5" y="-298.3" font-family="Times,serif" font-size="14.00" fill="#000000">op_code=call_function</text>
<polyline fill="none" stroke="black" points="0,-290.5 321,-290.5 "/>
<text text-anchor="middle" x="160.5" y="-275.3" font-family="Times,serif" font-size="14.00" fill="#000000">target=torch._inductor.debug.compute: fused_mul_pow</text>
<polyline fill="none" stroke="black" points="0,-267.5 321,-267.5 "/>
<text text-anchor="middle" x="160.5" y="-252.3" font-family="Times,serif" font-size="14.00" fill="#000000">kwargs={device: cuda:0,}</text>
<polyline fill="none" stroke="black" points="0,-244.5 321,-244.5 "/>
<text text-anchor="middle" x="160.5" y="-229.3" font-family="Times,serif" font-size="14.00" fill="#000000">num_users=1</text>
<polyline fill="none" stroke="black" points="0,-221.5 321,-221.5 "/>
<text text-anchor="middle" x="160.5" y="-206.3" font-family="Times,serif" font-size="14.00" fill="#000000">dtype=None</text>
<polyline fill="none" stroke="black" points="0,-198.5 321,-198.5 "/>
<text text-anchor="middle" x="160.5" y="-183.3" font-family="Times,serif" font-size="14.00" fill="#000000">shape=(100, 1)</text>
<polyline fill="none" stroke="black" points="0,-175.5 321,-175.5 "/>
<text text-anchor="middle" x="160.5" y="-160.3" font-family="Times,serif" font-size="14.00" fill="#000000">requires_grad=None</text>
<polyline fill="none" stroke="black" points="0,-152.5 321,-152.5 "/>
<text text-anchor="middle" x="160.5" y="-137.3" font-family="Times,serif" font-size="14.00" fill="#000000">stride=None</text>
</g>
<!-- tangents_1&#45;&gt;op0 -->
<g id="edge1" class="edge">
<title>tangents_1&#45;&gt;op0</title>
<path fill="none" stroke="black" d="M103.09,-373.37C106.62,-364.8 110.46,-355.49 114.42,-345.88"/>
<polygon fill="black" stroke="black" points="117.67,-347.17 118.24,-336.59 111.2,-344.5 117.67,-347.17"/>
</g>
<!-- primals_1 -->
<g id="node2" class="node">
<title>primals_1</title>
<path fill="AliceBlue" stroke="black" d="M181.5,-373.5C181.5,-373.5 291.5,-373.5 291.5,-373.5 297.5,-373.5 303.5,-379.5 303.5,-385.5 303.5,-385.5 303.5,-453.5 303.5,-453.5 303.5,-459.5 297.5,-465.5 291.5,-465.5 291.5,-465.5 181.5,-465.5 181.5,-465.5 175.5,-465.5 169.5,-459.5 169.5,-453.5 169.5,-453.5 169.5,-385.5 169.5,-385.5 169.5,-379.5 175.5,-373.5 181.5,-373.5"/>
<text text-anchor="middle" x="236.5" y="-450.3" font-family="Times,serif" font-size="14.00" fill="#000000">name=%primals_1</text>
<polyline fill="none" stroke="black" points="169.5,-442.5 303.5,-442.5 "/>
<text text-anchor="middle" x="236.5" y="-427.3" font-family="Times,serif" font-size="14.00" fill="#000000">op_code=placeholder</text>
<polyline fill="none" stroke="black" points="169.5,-419.5 303.5,-419.5 "/>
<text text-anchor="middle" x="236.5" y="-404.3" font-family="Times,serif" font-size="14.00" fill="#000000">target=primals_1</text>
<polyline fill="none" stroke="black" points="169.5,-396.5 303.5,-396.5 "/>
<text text-anchor="middle" x="236.5" y="-381.3" font-family="Times,serif" font-size="14.00" fill="#000000">num_users=1</text>
</g>
<!-- primals_1&#45;&gt;op0 -->
<g id="edge2" class="edge">
<title>primals_1&#45;&gt;op0</title>
<path fill="none" stroke="black" d="M217.91,-373.37C214.38,-364.8 210.54,-355.49 206.58,-345.88"/>
<polygon fill="black" stroke="black" points="209.8,-344.5 202.76,-336.59 203.33,-347.17 209.8,-344.5"/>
</g>
<!-- output -->
<g id="node4" class="node">
<title>output</title>
<path fill="PowderBlue" stroke="black" d="M120,-0.5C120,-0.5 201,-0.5 201,-0.5 207,-0.5 213,-6.5 213,-12.5 213,-12.5 213,-80.5 213,-80.5 213,-86.5 207,-92.5 201,-92.5 201,-92.5 120,-92.5 120,-92.5 114,-92.5 108,-86.5 108,-80.5 108,-80.5 108,-12.5 108,-12.5 108,-6.5 114,-0.5 120,-0.5"/>
<text text-anchor="middle" x="160.5" y="-77.3" font-family="Times,serif" font-size="14.00" fill="#000000">name=%output</text>
<polyline fill="none" stroke="black" points="108,-69.5 213,-69.5 "/>
<text text-anchor="middle" x="160.5" y="-54.3" font-family="Times,serif" font-size="14.00" fill="#000000">op_code=output</text>
<polyline fill="none" stroke="black" points="108,-46.5 213,-46.5 "/>
<text text-anchor="middle" x="160.5" y="-31.3" font-family="Times,serif" font-size="14.00" fill="#000000">target=output</text>
<polyline fill="none" stroke="black" points="108,-23.5 213,-23.5 "/>
<text text-anchor="middle" x="160.5" y="-8.3" font-family="Times,serif" font-size="14.00" fill="#000000">num_users=0</text>
</g>
<!-- op0&#45;&gt;output -->
<g id="edge3" class="edge">
<title>op0&#45;&gt;output</title>
<path fill="none" stroke="black" d="M160.5,-129.5C160.5,-120.3 160.5,-111.24 160.5,-102.69"/>
<polygon fill="black" stroke="black" points="164,-102.53 160.5,-92.53 157,-102.53 164,-102.53"/>
</g>
</g>
</svg>
